<svg width="32" height="32" viewBox="0 0 32 32" fill="none" xmlns="http://www.w3.org/2000/svg"><rect width="32" height="32" rx="16" fill="#fff" fill-opacity=".15"/><g clip-path="url(#a)"><path d="M11.333 17.524c-1.234.545-2 1.303-2 2.143 0 1.656 2.985 3 6.667 3s6.667-1.344 6.667-3c0-.84-.766-1.598-2-2.143M20 13.334c0 2.709-3 4-4 6-1-2-4-3.291-4-6a4 4 0 0 1 8 0m-3.333 0a.667.667 0 1 1-1.334 0 .667.667 0 0 1 1.334 0" stroke="#fff" stroke-width="1.333" stroke-linecap="round" stroke-linejoin="round"/></g><defs><clipPath id="a"><path fill="#fff" d="M8 8h16v16H8z"/></clipPath></defs></svg>