<svg width="32" height="33" viewBox="0 0 32 33" fill="none" xmlns="http://www.w3.org/2000/svg">
<g filter="url(#filter0_dd_123_15097)">
<rect x="3" y="5" width="24" height="24" rx="4" fill="white"/>
<path d="M8.33331 13.6667L13.7766 17.477C14.2174 17.7855 14.4378 17.9398 14.6775 17.9995C14.8892 18.0523 15.1107 18.0523 15.3225 17.9995C15.5622 17.9398 15.7826 17.7855 16.2234 17.477L21.6666 13.6667M11.5333 22.3333H18.4666C19.5868 22.3333 20.1468 22.3333 20.5746 22.1153C20.951 21.9236 21.2569 21.6176 21.4487 21.2413C21.6666 20.8135 21.6666 20.2534 21.6666 19.1333V14.8667C21.6666 13.7466 21.6666 13.1865 21.4487 12.7587C21.2569 12.3824 20.951 12.0764 20.5746 11.8847C20.1468 11.6667 19.5868 11.6667 18.4666 11.6667H11.5333C10.4132 11.6667 9.85316 11.6667 9.42533 11.8847C9.04901 12.0764 8.74305 12.3824 8.5513 12.7587C8.33331 13.1865 8.33331 13.7466 8.33331 14.8667V19.1333C8.33331 20.2534 8.33331 20.8135 8.5513 21.2413C8.74305 21.6176 9.04901 21.9236 9.42533 22.1153C9.85316 22.3333 10.4132 22.3333 11.5333 22.3333Z" stroke="#2970FF" stroke-width="2" stroke-linecap="round" stroke-linejoin="round"/>
<rect x="3.5" y="5.5" width="23" height="23" rx="3.5" stroke="#FCFCFD"/>
</g>
<rect x="21" y="1" width="10" height="10" rx="5" fill="#32D583"/>
<path fill-rule="evenodd" clip-rule="evenodd" d="M26.2361 3.14675C26.3761 2.90869 26.6825 2.82917 26.9206 2.96911L28.2016 3.7222C28.3779 3.79945 28.5012 3.97554 28.5012 4.18042C28.5012 4.21786 28.497 4.25435 28.4892 4.28944C28.4601 4.42454 28.3757 4.54337 28.2539 4.61502L26.9206 5.39887C26.6825 5.53882 26.3761 5.45929 26.2361 5.22124C26.1336 5.04689 26.1489 4.83586 26.2579 4.68042H24.8901C24.8155 4.68042 24.724 4.71454 24.6423 4.81046C24.6424 4.81043 24.6424 4.81039 24.6424 4.81035L24.2615 4.48653L24.6422 4.81057C24.6423 4.81053 24.6423 4.8105 24.6423 4.81046C24.5587 4.90887 24.5012 5.05728 24.5012 5.22554V5.74811C24.5012 6.02425 24.2773 6.24811 24.0012 6.24811C23.725 6.24811 23.5012 6.02425 23.5012 5.74811V5.22554C23.5012 4.8395 23.6309 4.45629 23.8805 4.16271L23.8807 4.16249C24.1326 3.86647 24.4931 3.68042 24.8901 3.68042H26.253C26.1484 3.5257 26.1352 3.31844 26.2361 3.14675ZM23.7791 7.30589L23.747 7.32489C23.5946 7.41483 23.5012 7.57856 23.5012 7.75546C23.5012 7.93236 23.5946 8.09609 23.747 8.18602L25.0803 8.97314C25.3181 9.11352 25.6246 9.03455 25.765 8.79676C25.8683 8.62189 25.8529 8.40983 25.7429 8.25402H27.1123C27.5101 8.25402 27.8707 8.06676 28.1223 7.76984L28.1225 7.76964C28.3717 7.47518 28.5012 7.09111 28.5012 6.70446V6.17969C28.5012 5.90354 28.2773 5.67969 28.0012 5.67969C27.725 5.67969 27.5012 5.90354 27.5012 6.17969V6.70446C27.5012 6.87453 27.4432 7.02438 27.3592 7.12356C27.2773 7.22016 27.186 7.25402 27.1123 7.25402H25.7449C25.8531 7.09846 25.8676 6.88788 25.765 6.71406C25.6246 6.47627 25.318 6.39731 25.0803 6.5377L23.7791 7.30589ZM27.3592 7.12356L27.7409 7.4466L27.3594 7.12335C27.3593 7.12342 27.3593 7.12349 27.3592 7.12356Z" fill="white"/>
<rect x="21" y="1" width="10" height="10" rx="5" stroke="#F2F4F7"/>
<defs>
<filter id="filter0_dd_123_15097" x="0" y="3" width="30" height="30" filterUnits="userSpaceOnUse" color-interpolation-filters="sRGB">
<feFlood flood-opacity="0" result="BackgroundImageFix"/>
<feColorMatrix in="SourceAlpha" type="matrix" values="0 0 0 0 0 0 0 0 0 0 0 0 0 0 0 0 0 0 127 0" result="hardAlpha"/>
<feOffset dy="1"/>
<feGaussianBlur stdDeviation="1"/>
<feColorMatrix type="matrix" values="0 0 0 0 0.0627451 0 0 0 0 0.0941176 0 0 0 0 0.156863 0 0 0 0.06 0"/>
<feBlend mode="normal" in2="BackgroundImageFix" result="effect1_dropShadow_123_15097"/>
<feColorMatrix in="SourceAlpha" type="matrix" values="0 0 0 0 0 0 0 0 0 0 0 0 0 0 0 0 0 0 127 0" result="hardAlpha"/>
<feOffset dy="1"/>
<feGaussianBlur stdDeviation="1.5"/>
<feColorMatrix type="matrix" values="0 0 0 0 0.0627451 0 0 0 0 0.0941176 0 0 0 0 0.156863 0 0 0 0.1 0"/>
<feBlend mode="normal" in2="effect1_dropShadow_123_15097" result="effect2_dropShadow_123_15097"/>
<feBlend mode="normal" in="SourceGraphic" in2="effect2_dropShadow_123_15097" result="shape"/>
</filter>
</defs>
</svg>
