<svg width="32" height="33" viewBox="0 0 32 33" fill="none" xmlns="http://www.w3.org/2000/svg">
<g filter="url(#filter0_dd_123_15106)">
<rect x="3" y="5" width="24" height="24" rx="4" fill="#FCFCFD"/>
<g clip-path="url(#clip0_123_15106)">
<path d="M12.5869 14.9022C13.0508 15.8686 13.6834 16.7743 14.4844 17.5754C15.2855 18.3764 16.1912 19.009 17.1577 19.473C17.2408 19.5129 17.2823 19.5328 17.3349 19.5482C17.5218 19.6026 17.7513 19.5635 17.9096 19.4502C17.9542 19.4183 17.9923 19.3802 18.0685 19.304C18.3016 19.0709 18.4181 18.9543 18.5353 18.8782C18.9772 18.5908 19.5469 18.5908 19.9889 18.8782C20.106 18.9543 20.2226 19.0709 20.4556 19.304L20.5856 19.4339C20.9398 19.7882 21.117 19.9653 21.2132 20.1556C21.4046 20.5339 21.4046 20.9808 21.2132 21.3592C21.117 21.5494 20.9399 21.7266 20.5856 22.0809L20.4805 22.1859C20.1274 22.539 19.9508 22.7156 19.7108 22.8504C19.4445 23 19.0308 23.1076 18.7253 23.1067C18.45 23.1059 18.2619 23.0525 17.8856 22.9456C15.8633 22.3717 13.9551 21.2887 12.3631 19.6967C10.7711 18.1047 9.68814 16.1965 9.11416 14.1742C9.00735 13.7979 8.95395 13.6098 8.95313 13.3345C8.95222 13.029 9.0598 12.6153 9.20941 12.349C9.34424 12.109 9.52078 11.9324 9.87386 11.5793L9.97895 11.4743C10.3332 11.12 10.5104 10.9428 10.7007 10.8466C11.079 10.6552 11.5259 10.6552 11.9042 10.8466C12.0945 10.9428 12.2716 11.12 12.6259 11.4742L12.7559 11.6042C12.9889 11.8372 13.1055 11.9538 13.1816 12.071C13.469 12.5129 13.469 13.0826 13.1816 13.5245C13.1055 13.6417 12.9889 13.7582 12.7559 13.9913C12.6796 14.0675 12.6415 14.1056 12.6096 14.1502C12.4963 14.3085 12.4572 14.538 12.5117 14.7249C12.527 14.7775 12.5469 14.819 12.5869 14.9022Z" stroke="#2970FF" stroke-width="2" stroke-linecap="round" stroke-linejoin="round"/>
</g>
<rect x="3.5" y="5.5" width="23" height="23" rx="3.5" stroke="#FCFCFD"/>
</g>
<rect x="21" y="1" width="10" height="10" rx="5" fill="#32D583"/>
<path fill-rule="evenodd" clip-rule="evenodd" d="M26.2361 3.14675C26.3761 2.90869 26.6825 2.82917 26.9206 2.96911L28.2016 3.7222C28.3779 3.79945 28.5012 3.97554 28.5012 4.18042C28.5012 4.21786 28.497 4.25435 28.4892 4.28944C28.4601 4.42454 28.3757 4.54337 28.2539 4.61502L26.9206 5.39887C26.6825 5.53882 26.3761 5.45929 26.2361 5.22124C26.1336 5.04689 26.1489 4.83586 26.2579 4.68042H24.8901C24.8155 4.68042 24.724 4.71454 24.6423 4.81046C24.6424 4.81043 24.6424 4.81039 24.6424 4.81035L24.2615 4.48653L24.6422 4.81057C24.6423 4.81053 24.6423 4.8105 24.6423 4.81046C24.5587 4.90887 24.5012 5.05728 24.5012 5.22554V5.74811C24.5012 6.02425 24.2773 6.24811 24.0012 6.24811C23.725 6.24811 23.5012 6.02425 23.5012 5.74811V5.22554C23.5012 4.8395 23.6309 4.45629 23.8805 4.16271L23.8807 4.16249C24.1326 3.86647 24.4931 3.68042 24.8901 3.68042H26.253C26.1484 3.5257 26.1352 3.31844 26.2361 3.14675ZM23.7791 7.30589L23.747 7.32489C23.5946 7.41483 23.5012 7.57856 23.5012 7.75546C23.5012 7.93236 23.5946 8.09609 23.747 8.18602L25.0803 8.97314C25.3181 9.11352 25.6246 9.03455 25.765 8.79676C25.8683 8.62189 25.8529 8.40983 25.7429 8.25402H27.1123C27.5101 8.25402 27.8707 8.06676 28.1223 7.76984L28.1225 7.76964C28.3717 7.47518 28.5012 7.09111 28.5012 6.70446V6.17969C28.5012 5.90354 28.2773 5.67969 28.0012 5.67969C27.725 5.67969 27.5012 5.90354 27.5012 6.17969V6.70446C27.5012 6.87453 27.4432 7.02438 27.3592 7.12356C27.2773 7.22016 27.186 7.25402 27.1123 7.25402H25.7449C25.8531 7.09846 25.8676 6.88788 25.765 6.71406C25.6246 6.47627 25.318 6.39731 25.0803 6.5377L23.7791 7.30589ZM27.3592 7.12356L27.7409 7.4466L27.3594 7.12335C27.3593 7.12342 27.3593 7.12349 27.3592 7.12356Z" fill="white"/>
<rect x="21" y="1" width="10" height="10" rx="5" stroke="#F2F4F7"/>
<defs>
<filter id="filter0_dd_123_15106" x="0" y="3" width="30" height="30" filterUnits="userSpaceOnUse" color-interpolation-filters="sRGB">
<feFlood flood-opacity="0" result="BackgroundImageFix"/>
<feColorMatrix in="SourceAlpha" type="matrix" values="0 0 0 0 0 0 0 0 0 0 0 0 0 0 0 0 0 0 127 0" result="hardAlpha"/>
<feOffset dy="1"/>
<feGaussianBlur stdDeviation="1"/>
<feColorMatrix type="matrix" values="0 0 0 0 0.0627451 0 0 0 0 0.0941176 0 0 0 0 0.156863 0 0 0 0.06 0"/>
<feBlend mode="normal" in2="BackgroundImageFix" result="effect1_dropShadow_123_15106"/>
<feColorMatrix in="SourceAlpha" type="matrix" values="0 0 0 0 0 0 0 0 0 0 0 0 0 0 0 0 0 0 127 0" result="hardAlpha"/>
<feOffset dy="1"/>
<feGaussianBlur stdDeviation="1.5"/>
<feColorMatrix type="matrix" values="0 0 0 0 0.0627451 0 0 0 0 0.0941176 0 0 0 0 0.156863 0 0 0 0.1 0"/>
<feBlend mode="normal" in2="effect1_dropShadow_123_15106" result="effect2_dropShadow_123_15106"/>
<feBlend mode="normal" in="SourceGraphic" in2="effect2_dropShadow_123_15106" result="shape"/>
</filter>
<clipPath id="clip0_123_15106">
<rect width="16" height="16" fill="white" transform="translate(7 9)"/>
</clipPath>
</defs>
</svg>
