<svg width="32" height="33" viewBox="0 0 32 33" fill="none" xmlns="http://www.w3.org/2000/svg">
<g filter="url(#filter0_dd_123_15167)">
<rect x="3" y="5" width="24" height="24" rx="4" fill="white"/>
<g clip-path="url(#clip0_123_15167)">
<path d="M12.5869 14.9022C13.0508 15.8686 13.6834 16.7743 14.4844 17.5754C15.2855 18.3764 16.1912 19.009 17.1577 19.473C17.2408 19.5129 17.2823 19.5328 17.3349 19.5482C17.5218 19.6026 17.7513 19.5635 17.9096 19.4502C17.9542 19.4183 17.9923 19.3802 18.0685 19.304C18.3016 19.0709 18.4181 18.9543 18.5353 18.8782C18.9772 18.5908 19.5469 18.5908 19.9889 18.8782C20.106 18.9543 20.2226 19.0709 20.4556 19.304L20.5856 19.4339C20.9398 19.7882 21.117 19.9653 21.2132 20.1556C21.4046 20.5339 21.4046 20.9808 21.2132 21.3592C21.117 21.5494 20.9399 21.7266 20.5856 22.0808L20.4805 22.1859C20.1274 22.539 19.9508 22.7156 19.7108 22.8504C19.4445 23 19.0308 23.1076 18.7253 23.1067C18.45 23.1059 18.2619 23.0525 17.8856 22.9456C15.8633 22.3717 13.9551 21.2887 12.3631 19.6967C10.7711 18.1047 9.68814 16.1965 9.11416 14.1742C9.00735 13.7979 8.95395 13.6098 8.95313 13.3345C8.95222 13.029 9.0598 12.6153 9.20941 12.349C9.34424 12.109 9.52078 11.9324 9.87386 11.5793L9.97895 11.4742C10.3332 11.12 10.5104 10.9428 10.7007 10.8466C11.079 10.6552 11.5259 10.6552 11.9042 10.8466C12.0945 10.9428 12.2716 11.12 12.6259 11.4742L12.7559 11.6042C12.9889 11.8372 13.1055 11.9538 13.1816 12.071C13.469 12.5129 13.469 13.0826 13.1816 13.5245C13.1055 13.6417 12.9889 13.7582 12.7559 13.9913C12.6796 14.0675 12.6415 14.1056 12.6096 14.1502C12.4963 14.3085 12.4572 14.538 12.5117 14.7249C12.527 14.7775 12.5469 14.819 12.5869 14.9022Z" stroke="#2970FF" stroke-width="2" stroke-linecap="round" stroke-linejoin="round"/>
</g>
<rect x="3.5" y="5.5" width="23" height="23" rx="3.5" stroke="#FCFCFD"/>
</g>
<rect x="21" y="1" width="10" height="10" rx="5" fill="#F04438"/>
<path d="M27.5 4.5L24.5 7.5M24.5 4.5L27.5 7.5" stroke="white" stroke-linecap="round" stroke-linejoin="round"/>
<rect x="21" y="1" width="10" height="10" rx="5" stroke="#F2F4F7"/>
<defs>
<filter id="filter0_dd_123_15167" x="0" y="3" width="30" height="30" filterUnits="userSpaceOnUse" color-interpolation-filters="sRGB">
<feFlood flood-opacity="0" result="BackgroundImageFix"/>
<feColorMatrix in="SourceAlpha" type="matrix" values="0 0 0 0 0 0 0 0 0 0 0 0 0 0 0 0 0 0 127 0" result="hardAlpha"/>
<feOffset dy="1"/>
<feGaussianBlur stdDeviation="1"/>
<feColorMatrix type="matrix" values="0 0 0 0 0.0627451 0 0 0 0 0.0941176 0 0 0 0 0.156863 0 0 0 0.06 0"/>
<feBlend mode="normal" in2="BackgroundImageFix" result="effect1_dropShadow_123_15167"/>
<feColorMatrix in="SourceAlpha" type="matrix" values="0 0 0 0 0 0 0 0 0 0 0 0 0 0 0 0 0 0 127 0" result="hardAlpha"/>
<feOffset dy="1"/>
<feGaussianBlur stdDeviation="1.5"/>
<feColorMatrix type="matrix" values="0 0 0 0 0.0627451 0 0 0 0 0.0941176 0 0 0 0 0.156863 0 0 0 0.1 0"/>
<feBlend mode="normal" in2="effect1_dropShadow_123_15167" result="effect2_dropShadow_123_15167"/>
<feBlend mode="normal" in="SourceGraphic" in2="effect2_dropShadow_123_15167" result="shape"/>
</filter>
<clipPath id="clip0_123_15167">
<rect width="16" height="16" fill="white" transform="translate(7 9)"/>
</clipPath>
</defs>
</svg>
