<svg width="32" height="33" viewBox="0 0 32 33" fill="none" xmlns="http://www.w3.org/2000/svg">
<g filter="url(#filter0_dd_123_15190)">
<rect x="3" y="5" width="24" height="24" rx="4" fill="white"/>
<path d="M23 17C23 21.4183 19.4183 25 15 25C10.5817 25 7 21.4183 7 17C7 12.5817 10.5817 9 15 9C19.4183 9 23 12.5817 23 17Z" fill="#028CB0"/>
<path d="M9.54593 17C9.54593 19.1613 10.8031 21.0229 12.6211 21.9077L10.0198 14.7807C9.70742 15.4789 9.54595 16.2351 9.54593 17ZM15 22.4541C15.6334 22.4541 16.2426 22.3429 16.8132 22.1446L16.7745 22.0721L15.0967 17.4787L13.4624 22.2316C13.9459 22.3767 14.4633 22.4541 15 22.4541ZM15.7495 14.4422L17.7222 20.3073L18.2686 18.4892C18.5007 17.7349 18.6796 17.1934 18.6796 16.7244C18.6796 16.0475 18.4378 15.5833 18.2347 15.2255C17.9543 14.771 17.698 14.389 17.698 13.9442C17.698 13.4413 18.0752 12.9771 18.6167 12.9771H18.6844C17.6794 12.0546 16.3642 11.5437 15 11.5459C14.0967 11.5458 13.2075 11.7702 12.4125 12.1989C11.6174 12.6277 10.9414 13.2473 10.4453 14.0022L10.7934 14.0119C11.364 14.0119 12.244 13.9393 12.244 13.9393C12.5437 13.9248 12.5776 14.3552 12.2826 14.389C12.2826 14.389 11.9877 14.4277 11.6541 14.4422L13.6462 20.3508L14.8404 16.7727L13.9895 14.4422C13.7988 14.4317 13.6086 14.4156 13.4189 14.3938C13.124 14.3745 13.1578 13.9248 13.4527 13.9393C13.4527 13.9393 14.3521 14.0119 14.8888 14.0119C15.4593 14.0119 16.3393 13.9393 16.3393 13.9393C16.6343 13.9248 16.673 14.3552 16.378 14.389C16.378 14.389 16.0831 14.4229 15.7495 14.4422ZM17.7415 21.7143C18.5666 21.2345 19.2514 20.5467 19.7274 19.7194C20.2034 18.8921 20.454 17.9544 20.4541 17C20.4541 16.0523 20.2123 15.1626 19.7868 14.3842C19.8732 15.2406 19.7436 16.1051 19.4097 16.8985L17.7415 21.7143ZM15 23.2857C13.3329 23.2857 11.7341 22.6235 10.5553 21.4447C9.37653 20.2659 8.71429 18.6671 8.71429 17C8.71429 15.3329 9.37653 13.7341 10.5553 12.5553C11.7341 11.3765 13.3329 10.7143 15 10.7143C16.6671 10.7143 18.2659 11.3765 19.4447 12.5553C20.6235 13.7341 21.2857 15.3329 21.2857 17C21.2857 18.6671 20.6235 20.2659 19.4447 21.4447C18.2659 22.6235 16.6671 23.2857 15 23.2857Z" fill="white"/>
<rect x="3.5" y="5.5" width="23" height="23" rx="3.5" stroke="#FCFCFD"/>
</g>
<rect x="21" y="1" width="10" height="10" rx="5" fill="#12B76A"/>
<path d="M28 4.5L25.25 7.25L24 6" stroke="white" stroke-linecap="round" stroke-linejoin="round"/>
<rect x="21" y="1" width="10" height="10" rx="5" stroke="#F2F4F7"/>
<defs>
<filter id="filter0_dd_123_15190" x="0" y="3" width="30" height="30" filterUnits="userSpaceOnUse" color-interpolation-filters="sRGB">
<feFlood flood-opacity="0" result="BackgroundImageFix"/>
<feColorMatrix in="SourceAlpha" type="matrix" values="0 0 0 0 0 0 0 0 0 0 0 0 0 0 0 0 0 0 127 0" result="hardAlpha"/>
<feOffset dy="1"/>
<feGaussianBlur stdDeviation="1"/>
<feColorMatrix type="matrix" values="0 0 0 0 0.0627451 0 0 0 0 0.0941176 0 0 0 0 0.156863 0 0 0 0.06 0"/>
<feBlend mode="normal" in2="BackgroundImageFix" result="effect1_dropShadow_123_15190"/>
<feColorMatrix in="SourceAlpha" type="matrix" values="0 0 0 0 0 0 0 0 0 0 0 0 0 0 0 0 0 0 127 0" result="hardAlpha"/>
<feOffset dy="1"/>
<feGaussianBlur stdDeviation="1.5"/>
<feColorMatrix type="matrix" values="0 0 0 0 0.0627451 0 0 0 0 0.0941176 0 0 0 0 0.156863 0 0 0 0.1 0"/>
<feBlend mode="normal" in2="effect1_dropShadow_123_15190" result="effect2_dropShadow_123_15190"/>
<feBlend mode="normal" in="SourceGraphic" in2="effect2_dropShadow_123_15190" result="shape"/>
</filter>
</defs>
</svg>
