<svg width="20" height="20" viewBox="0 0 20 20" fill="none" xmlns="http://www.w3.org/2000/svg">
<path d="M7.5 4.99935V8.75035C7.5 9.20946 7.5 9.43901 7.44277 9.65173C7.39206 9.84021 7.30864 10.0183 7.19631 10.1779C7.06953 10.3581 6.89319 10.505 6.54049 10.7989L3.45951 13.3664C3.10681 13.6603 2.93047 13.8073 2.80369 13.9874C2.69136 14.1471 2.60794 14.3252 2.55723 14.5136C2.5 14.7264 2.5 14.9559 2.5 15.415V15.666C2.5 16.5994 2.5 17.0661 2.68166 17.4227C2.84144 17.7363 3.09641 17.9912 3.41002 18.151C3.76654 18.3327 4.23325 18.3327 5.16667 18.3327H14.8333C15.7668 18.3327 16.2335 18.3327 16.59 18.151C16.9036 17.9912 17.1586 17.7363 17.3183 17.4227C17.5 17.0661 17.5 16.5994 17.5 15.666V15.415C17.5 14.9559 17.5 14.7264 17.4428 14.5136C17.3921 14.3252 17.3086 14.1471 17.1963 13.9874C17.0695 13.8073 16.8932 13.6603 16.5405 13.3664L13.4595 10.7989C13.1068 10.505 12.9305 10.3581 12.8037 10.1779C12.6914 10.0183 12.6079 9.84021 12.5572 9.65173C12.5 9.43901 12.5 9.20946 12.5 8.75035V4.99935M6.91667 4.99935H13.0833C13.3167 4.99935 13.4334 4.99935 13.5225 4.95394C13.6009 4.91399 13.6646 4.85025 13.7046 4.77185C13.75 4.68272 13.75 4.56604 13.75 4.33268V2.33268C13.75 2.09933 13.75 1.98265 13.7046 1.89352C13.6646 1.81512 13.6009 1.75138 13.5225 1.71143C13.4334 1.66602 13.3167 1.66602 13.0833 1.66602H6.91667C6.68331 1.66602 6.56663 1.66602 6.4775 1.71143C6.3991 1.75138 6.33536 1.81512 6.29541 1.89352C6.25 1.98265 6.25 2.09933 6.25 2.33268V4.33268C6.25 4.56604 6.25 4.68272 6.29541 4.77185C6.33536 4.85025 6.3991 4.91399 6.4775 4.95394C6.56663 4.99935 6.68331 4.99935 6.91667 4.99935ZM4.58333 14.166H15.4167C15.8039 14.166 15.9975 14.166 16.1585 14.198C16.8196 14.3296 17.3365 14.8464 17.468 15.5075C17.5 15.6685 17.5 15.8621 17.5 16.2493C17.5 16.6366 17.5 16.8302 17.468 16.9912C17.3365 17.6523 16.8196 18.1691 16.1585 18.3007C15.9975 18.3327 15.8039 18.3327 15.4167 18.3327H4.58333C4.19612 18.3327 4.00251 18.3327 3.84152 18.3007C3.18037 18.1691 2.66354 17.6523 2.53202 16.9912C2.5 16.8302 2.5 16.6366 2.5 16.2493C2.5 15.8621 2.5 15.6685 2.53202 15.5075C2.66354 14.8464 3.18037 14.3296 3.84152 14.198C4.00251 14.166 4.19612 14.166 4.58333 14.166Z" stroke="white" stroke-width="1.66667" stroke-linecap="round" stroke-linejoin="round"/>
</svg>
