<svg width="25" height="30" viewBox="0 0 25 30" fill="none" xmlns="http://www.w3.org/2000/svg">
<g clip-path="url(#clip0_3_50)">
<path d="M11.4583 4.90428C12.1029 4.52149 12.8971 4.52149 13.5417 4.90428L22.2837 10.0957C22.9283 10.4785 23.3253 11.1859 23.3253 11.9515V22.3342C23.3253 23.0998 22.9283 23.8072 22.2837 24.19L13.5417 29.3814C12.8971 29.7642 12.1029 29.7642 11.4583 29.3814L2.71635 24.19C2.07177 23.8072 1.67468 23.0998 1.67468 22.3342V11.9515C1.67468 11.1859 2.07177 10.4785 2.71635 10.0957L11.4583 4.90428Z" fill="#D7D7F1"/>
<path d="M19.4444 11.0715C22.3209 11.0715 24.6528 8.67299 24.6528 5.71432C24.6528 2.75565 22.3209 0.357178 19.4444 0.357178C16.5679 0.357178 14.2361 2.75565 14.2361 5.71432C14.2361 8.67299 16.5679 11.0715 19.4444 11.0715Z" fill="white" stroke="white"/>
<path d="M19.4444 10.7142C22.1291 10.7142 24.3055 8.47566 24.3055 5.71423C24.3055 2.95281 22.1291 0.714233 19.4444 0.714233C16.7597 0.714233 14.5833 2.95281 14.5833 5.71423C14.5833 8.47566 16.7597 10.7142 19.4444 10.7142Z" fill="#F56565"/>
<path d="M12.5 11.905V22.3812" stroke="white" stroke-width="2" stroke-linecap="round" stroke-linejoin="round"/>
<path d="M14.8148 13.8093H11.3426C10.9129 13.8093 10.5007 13.9849 10.1968 14.2975C9.89292 14.61 9.72223 15.034 9.72223 15.476C9.72223 15.918 9.89292 16.342 10.1968 16.6545C10.5007 16.967 10.9129 17.1427 11.3426 17.1427H13.6574C14.0872 17.1427 14.4993 17.3183 14.8032 17.6308C15.1071 17.9434 15.2778 18.3673 15.2778 18.8093C15.2778 19.2513 15.1071 19.6753 14.8032 19.9878C14.4993 20.3004 14.0872 20.476 13.6574 20.476H9.72223" stroke="white" stroke-width="2" stroke-linecap="round" stroke-linejoin="round"/>
<path d="M21.5278 3.57141L17.3611 7.85713" stroke="white" stroke-width="1.5" stroke-linecap="round" stroke-linejoin="round"/>
<path d="M17.3611 3.57141L21.5278 7.85713" stroke="white" stroke-width="1.5" stroke-linecap="round" stroke-linejoin="round"/>
</g>
<defs>
<clipPath id="clip0_3_50">
<rect width="25" height="30" fill="white"/>
</clipPath>
</defs>
</svg>
