<svg width="25" height="29" viewBox="0 0 25 29" fill="none" xmlns="http://www.w3.org/2000/svg">
<g clip-path="url(#clip0_3_32)">
<path d="M11.4583 4.74078C12.1029 4.37075 12.8971 4.37075 13.5417 4.74078L22.2837 9.75914C22.9283 10.1292 23.3254 10.813 23.3254 11.5531V21.5897C23.3254 22.3297 22.9283 23.0136 22.2837 23.3836L13.5417 28.402C12.8971 28.772 12.1029 28.772 11.4583 28.402L2.71635 23.3836C2.07177 23.0136 1.67468 22.3297 1.67468 21.5897V11.5531C1.67468 10.813 2.07177 10.1292 2.71635 9.75914L11.4583 4.74078Z" fill="url(#paint0_linear_3_32)"/>
<path d="M19.4444 10.7024C22.3209 10.7024 24.6528 8.38383 24.6528 5.52379C24.6528 2.66374 22.3209 0.345215 19.4444 0.345215C16.5679 0.345215 14.2361 2.66374 14.2361 5.52379C14.2361 8.38383 16.5679 10.7024 19.4444 10.7024Z" fill="white" stroke="white"/>
<path d="M19.4444 10.3571C22.1291 10.3571 24.3055 8.19314 24.3055 5.52376C24.3055 2.85439 22.1291 0.69043 19.4444 0.69043C16.7597 0.69043 14.5833 2.85439 14.5833 5.52376C14.5833 8.19314 16.7597 10.3571 19.4444 10.3571Z" fill="#68D391"/>
<path d="M12.5 11.5082V21.6352" stroke="white" stroke-width="2" stroke-linecap="round" stroke-linejoin="round"/>
<path d="M14.8148 13.349H11.3426C10.9129 13.349 10.5007 13.5187 10.1968 13.8209C9.89292 14.123 9.72223 14.5328 9.72223 14.9601C9.72223 15.3874 9.89292 15.7972 10.1968 16.0994C10.5007 16.4015 10.9129 16.5712 11.3426 16.5712H13.6574C14.0872 16.5712 14.4993 16.741 14.8032 17.0431C15.1071 17.3453 15.2778 17.7551 15.2778 18.1823C15.2778 18.6096 15.1071 19.0194 14.8032 19.3215C14.4993 19.6237 14.0872 19.7934 13.6574 19.7934H9.72223" stroke="white" stroke-width="2" stroke-linecap="round" stroke-linejoin="round"/>
<path d="M18.75 8.28552L17.3611 7.44011L18.75 6.5946" stroke="white" stroke-linecap="round" stroke-linejoin="round"/>
<path d="M21.5278 5.74976V6.3134C21.5278 6.61237 21.4302 6.89911 21.2566 7.11051C21.0829 7.32194 20.8474 7.4407 20.6018 7.4407H17.3611" stroke="white" stroke-linecap="round" stroke-linejoin="round"/>
<path d="M20.1389 2.76184L21.5278 3.60375L20.1389 4.44566" stroke="white" stroke-linecap="round" stroke-linejoin="round"/>
<path d="M17.3611 5.28648V4.7252C17.3611 4.42749 17.4587 4.14196 17.6323 3.93145C17.8059 3.72093 18.0414 3.60266 18.287 3.60266H21.5278" stroke="white" stroke-linecap="round" stroke-linejoin="round"/>
</g>
<defs>
<linearGradient id="paint0_linear_3_32" x1="2.08089e-06" y1="16.6833" x2="25" y2="16.6833" gradientUnits="userSpaceOnUse">
<stop stop-color="#F05938"/>
<stop offset="1" stop-color="#E39929"/>
</linearGradient>
<clipPath id="clip0_3_32">
<rect width="25" height="29" fill="white"/>
</clipPath>
</defs>
</svg>
