<svg width="16" height="16" viewBox="0 0 16 16" fill="none" xmlns="http://www.w3.org/2000/svg">
<g clip-path="url(#clip0_650_79)">
<path d="M7.33331 1.3335L9.33331 3.3335M9.33331 3.3335L7.33331 5.3335M9.33331 3.3335H4.53331C3.41321 3.3335 2.85316 3.3335 2.42533 3.55148C2.04901 3.74323 1.74305 4.04919 1.5513 4.42552C1.33331 4.85334 1.33331 5.41339 1.33331 6.5335V10.3335C1.33331 10.6431 1.33331 10.7979 1.35042 10.9279C1.46858 11.8253 2.17479 12.5316 3.07226 12.6497C3.20223 12.6668 3.35703 12.6668 3.66665 12.6668M6.66665 12.6668H11.4666C12.5868 12.6668 13.1468 12.6668 13.5746 12.4488C13.951 12.2571 14.2569 11.9511 14.4487 11.5748C14.6666 11.147 14.6666 10.5869 14.6666 9.46683V5.66683C14.6666 5.35722 14.6666 5.20241 14.6495 5.07244C14.5314 4.17498 13.8252 3.46876 12.9277 3.35061C12.7977 3.3335 12.6429 3.3335 12.3333 3.3335M6.66665 12.6668L8.66665 14.6668M6.66665 12.6668L8.66665 10.6668" stroke="#344054" stroke-width="1.5" stroke-linecap="round" stroke-linejoin="round"/>
</g>
<defs>
<clipPath id="clip0_650_79">
<rect width="16" height="16" fill="white"/>
</clipPath>
</defs>
</svg>
