<svg width="27" height="30" viewBox="0 0 27 30" fill="none" xmlns="http://www.w3.org/2000/svg">
<path d="M12.375 4.5178C13.0712 4.13502 13.9289 4.13502 14.625 4.5178L24.0664 9.70922C24.7625 10.092 25.1914 10.7994 25.1914 11.5649V21.9477C25.1914 22.7133 24.7625 23.4207 24.0664 23.8035L14.625 28.9949C13.9289 29.3777 13.0712 29.3777 12.375 28.9949L2.93365 23.8035C2.2375 23.4207 1.80865 22.7133 1.80865 21.9477V11.5649C1.80865 10.7994 2.2375 10.092 2.93365 9.70922L12.375 4.5178Z" fill="url(#paint0_linear_3_2)"/>
<path d="M5.99271 21.3521L13.1226 25.2722C13.2451 25.3396 13.3815 25.3732 13.5181 25.3732C13.6552 25.3732 13.7924 25.3393 13.9151 25.2714L21.016 21.3472C21.0175 21.3465 21.0186 21.3455 21.02 21.3447C21.2524 21.2147 21.4071 20.973 21.4096 20.703C21.4096 20.7005 21.4102 20.698 21.4102 20.6956V12.8457C21.4102 12.5777 21.2606 12.3298 21.0175 12.1949L13.8983 8.24204C13.6565 8.10789 13.3483 8.10511 13.1017 8.24204L5.9825 12.1949C5.73934 12.3298 5.58984 12.5777 5.58984 12.8457V20.6956C5.58976 20.9705 5.75216 21.2233 5.99271 21.3521ZM13.5172 23.7494L7.96282 20.6956L13.5172 17.6412L19.0432 20.6956L13.5172 23.7494ZM19.828 19.3875L14.2909 16.3269V10.2042L19.828 13.2786V19.3875ZM12.7089 10.2042V16.3458L7.17179 19.3907V13.2785L12.7089 10.2042Z" fill="white"/>
<path d="M20.2505 10.833C23.219 10.833 25.6255 8.54118 25.6255 5.71401C25.6255 2.88684 23.219 0.594971 20.2505 0.594971C17.2819 0.594971 14.8755 2.88684 14.8755 5.71401C14.8755 8.54118 17.2819 10.833 20.2505 10.833Z" fill="#F6AD55" stroke="white" stroke-linecap="round" stroke-linejoin="round"/>
<path d="M20.25 2.85718V5.71432L22.25 6.6667" stroke="white" stroke-width="1.5" stroke-linecap="round" stroke-linejoin="round"/>
<defs>
<linearGradient id="paint0_linear_3_2" x1="-6.42151e-08" y1="16.8722" x2="27" y2="16.8722" gradientUnits="userSpaceOnUse">
<stop stop-color="#C6D9EB"/>
<stop offset="1" stop-color="#DAD6F1"/>
</linearGradient>
</defs>
</svg>
