<svg width="26" height="30" viewBox="0 0 26 30" fill="none" xmlns="http://www.w3.org/2000/svg">
<path d="M11.9166 4.5178C12.587 4.13502 13.4129 4.13502 14.0833 4.5178L23.175 9.70922C23.8454 10.092 24.2583 10.7994 24.2583 11.5649V21.9477C24.2583 22.7133 23.8454 23.4207 23.175 23.8035L14.0833 28.9949C13.4129 29.3777 12.587 29.3777 11.9166 28.9949L2.82497 23.8035C2.1546 23.4207 1.74164 22.7133 1.74164 21.9477V11.5649C1.74164 10.7994 2.1546 10.092 2.82497 9.70922L11.9166 4.5178Z" fill="url(#paint0_linear_2_8)"/>
<path d="M5.77075 21.3521L12.6366 25.2722C12.7545 25.3396 12.8859 25.3732 13.0175 25.3732C13.1494 25.3732 13.2816 25.3393 13.3997 25.2714L20.2377 21.3472C20.239 21.3465 20.2401 21.3455 20.2415 21.3447C20.4653 21.2147 20.6142 20.973 20.6166 20.703C20.6166 20.7005 20.6172 20.698 20.6172 20.6956V12.8457C20.6172 12.5777 20.4732 12.3298 20.239 12.1949L13.3836 8.24204C13.1507 8.10789 12.854 8.10511 12.6164 8.24204L5.76092 12.1949C5.52677 12.3298 5.38281 12.5777 5.38281 12.8457V20.6956C5.38273 20.9705 5.53912 21.2233 5.77075 21.3521ZM13.0165 23.7494L7.6679 20.6956L13.0166 17.6412L18.3379 20.6956L13.0165 23.7494ZM19.0937 19.3875L13.7617 16.3269V10.2042L19.0937 13.2786V19.3875ZM12.2382 10.2042V16.3458L6.90617 19.3907V13.2785L12.2382 10.2042Z" fill="white"/>
<path d="M19.8611 10.1786C22.5535 10.1786 24.7361 8.01998 24.7361 5.3572C24.7361 2.6944 22.5535 0.535767 19.8611 0.535767C17.1687 0.535767 14.9861 2.6944 14.9861 5.3572C14.9861 8.01998 17.1687 10.1786 19.8611 10.1786Z" fill="#F56565" stroke="white" stroke-linecap="round" stroke-linejoin="round"/>
<path d="M21.6667 3.57141L18.0555 7.14284" stroke="white" stroke-width="1.5" stroke-linecap="round" stroke-linejoin="round"/>
<path d="M18.0555 3.57141L21.6667 7.14284" stroke="white" stroke-width="1.5" stroke-linecap="round" stroke-linejoin="round"/>
<defs>
<linearGradient id="paint0_linear_2_8" x1="-2.93617e-05" y1="16.8722" x2="26" y2="16.8722" gradientUnits="userSpaceOnUse">
<stop stop-color="#C6D9EB"/>
<stop offset="1" stop-color="#DAD6F1"/>
</linearGradient>
</defs>
</svg>
