<svg width="25" height="28" viewBox="0 0 25 28" fill="none" xmlns="http://www.w3.org/2000/svg">
<g clip-path="url(#clip0_2_3)">
<path d="M11.4583 4.5774C12.1029 4.22013 12.8971 4.22013 13.5417 4.5774L22.2837 9.42271C22.9283 9.77998 23.3254 10.4402 23.3254 11.1548V20.8454C23.3254 21.5598 22.9283 22.2201 22.2837 22.5774L13.5417 27.4227C12.8971 27.78 12.1029 27.78 11.4583 27.4227L2.71635 22.5774C2.07177 22.2201 1.67468 21.5598 1.67468 20.8454V11.1547C1.67468 10.4402 2.07177 9.77998 2.71635 9.42271L11.4583 4.5774Z" fill="url(#paint0_linear_2_3)"/>
<path d="M5.5488 20.2893L12.1506 23.9481C12.264 24.011 12.3903 24.0423 12.5168 24.0423C12.6437 24.0423 12.7708 24.0107 12.8844 23.9473L19.4593 20.2848C19.4606 20.2841 19.4617 20.2832 19.463 20.2824C19.6782 20.1611 19.8214 19.9355 19.8237 19.6835C19.8237 19.6812 19.8242 19.6789 19.8242 19.6766V12.35C19.8242 12.0999 19.6858 11.8685 19.4606 11.7426L12.8688 8.05325C12.6449 7.92805 12.3596 7.92545 12.1312 8.05325L5.53935 11.7426C5.3142 11.8685 5.17578 12.0999 5.17578 12.35V19.6766C5.1757 19.9331 5.32607 20.1691 5.5488 20.2893ZM12.5159 22.5269L7.37298 19.6766L12.516 16.8259L17.6326 19.6766L12.5159 22.5269ZM18.3593 18.4557L13.2324 15.5991V9.88465L18.3593 12.7541V18.4557ZM11.7675 9.88459V15.6168L6.64055 18.4587V12.754L11.7675 9.88459Z" fill="white"/>
<path d="M19.4444 10.3334C22.3209 10.3334 24.6528 8.0948 24.6528 5.33337C24.6528 2.57195 22.3209 0.333374 19.4444 0.333374C16.5679 0.333374 14.2361 2.57195 14.2361 5.33337C14.2361 8.0948 16.5679 10.3334 19.4444 10.3334Z" fill="white" stroke="white"/>
<path d="M19.4444 9.99996C16.7597 9.99996 14.5833 7.91063 14.5833 5.33329C14.5833 2.75596 16.7597 0.666626 19.4444 0.666626C22.1291 0.666626 24.3055 2.75596 24.3055 5.33329C24.3055 7.91063 22.1291 9.99996 19.4444 9.99996ZM21.4945 4.77355C21.7318 4.54575 21.7318 4.17639 21.4945 3.94859C21.2571 3.72079 20.8724 3.72079 20.6351 3.94859L18.8368 5.675L18.4563 5.3097C18.2189 5.0819 17.8342 5.0819 17.5969 5.3097C17.3596 5.53751 17.3596 5.90686 17.5969 6.13466L18.4071 6.91243C18.6444 7.14023 19.0291 7.14023 19.2664 6.91243L21.4945 4.77355Z" fill="#68D391"/>
</g>
<defs>
<linearGradient id="paint0_linear_2_3" x1="2.22842e-06" y1="16.1081" x2="25" y2="16.1081" gradientUnits="userSpaceOnUse">
<stop stop-color="#3182CE"/>
<stop offset="1" stop-color="#887BDC"/>
</linearGradient>
<clipPath id="clip0_2_3">
<rect width="25" height="28" fill="white"/>
</clipPath>
</defs>
</svg>
